<svg xmlns="http://www.w3.org/2000/svg" xmlns:xlink="http://www.w3.org/1999/xlink" width="500" zoomAndPan="magnify" viewBox="0 0 375 374.999991" height="500" preserveAspectRatio="xMidYMid meet" version="1.0"><path fill="rgb(94.509888%, 78.42865%, 25.878906%)" d="M 375 187.5 C 375 291.054688 291.054688 375 187.5 375 C 83.945312 375 0 291.054688 0 187.5 C 0 83.945312 83.945312 0 187.5 0 C 291.054688 0 375 83.945312 375 187.5 " fill-opacity="1" fill-rule="nonzero"/><path fill="rgb(67.059326%, 55.288696%, 9.799194%)" d="M 143.4375 70.324219 L 1.613281 212.152344 C 5.820312 244.160156 18.097656 273.617188 36.339844 298.429688 L 72.035156 335.238281 C 103.863281 360.144531 143.945312 375 187.5 375 C 206.734375 375 225.296875 372.097656 242.773438 366.710938 L 278.757812 330.726562 L 254.386719 260.253906 L 289.003906 225.632812 L 143.4375 70.324219 " fill-opacity="1" fill-rule="nonzero"/><path fill="rgb(89.019775%, 70.588684%, 10.198975%)" d="M 288.15625 184.101562 C 294.15625 178.621094 297.949219 170.757812 297.949219 161.988281 C 297.949219 145.449219 284.835938 132.035156 268.296875 132.035156 C 251.125 132.035156 235.769531 136.78125 223.652344 143.507812 C 231.308594 131.539062 236.90625 114.71875 236.90625 93.082031 C 236.90625 76.539062 223.496094 63.375 206.953125 63.375 C 198.183594 63.375 190.328125 67.164062 184.847656 73.171875 C 179.371094 67.164062 171.503906 63.375 162.738281 63.375 C 146.195312 63.375 132.78125 76.539062 132.78125 93.082031 C 132.78125 112.042969 138.570312 128.804688 146.433594 141.429688 C 134.816406 135.132812 119.449219 130.761719 100.335938 130.761719 C 83.796875 130.761719 70.472656 144.179688 70.472656 160.722656 C 70.472656 169.492188 74.265625 177.347656 80.265625 182.828125 C 74.265625 188.308594 70.472656 196.167969 70.472656 204.9375 C 70.472656 221.480469 83.796875 234.890625 100.335938 234.890625 C 117.050781 234.890625 132.085938 230.398438 144.09375 223.949219 C 137.449219 235.671875 132.78125 251.4375 132.78125 271.195312 C 132.78125 287.738281 146.195312 301.011719 162.738281 301.011719 C 171.503906 301.011719 179.371094 297.222656 184.847656 291.214844 C 190.328125 297.222656 198.183594 301.011719 206.953125 301.011719 C 223.496094 301.011719 236.90625 287.738281 236.90625 271.195312 C 236.90625 258.28125 234.222656 246.554688 230.027344 236.277344 C 248.277344 254.382812 266.9375 283.28125 259.964844 330.976562 L 279.007812 330.976562 C 279.007812 330.976562 287.476562 275.152344 236.515625 231.675781 C 245.59375 234.566406 256.179688 236.246094 268.296875 236.246094 C 284.835938 236.246094 297.949219 222.792969 297.949219 206.246094 C 297.949219 197.476562 294.15625 189.574219 288.15625 184.101562 " fill-opacity="1" fill-rule="nonzero"/><path fill="rgb(73.728943%, 61.178589%, 13.328552%)" d="M 197.046875 173.957031 L 225.882812 183.226562 L 197.046875 192.5 L 187.777344 221.332031 L 178.5 192.5 L 161.550781 183.226562 L 178.5 173.957031 L 187.777344 145.117188 L 197.046875 173.957031 " fill-opacity="1" fill-rule="nonzero"/></svg>